<?xml version="1.0" encoding="utf-8"?>
<!-- Generator: Adobe Illustrator 27.5.0, SVG Export Plug-In . SVG Version: 6.00 Build 0)  -->
<svg version="1.1" id="Calque_1" xmlns="http://www.w3.org/2000/svg" xmlns:xlink="http://www.w3.org/1999/xlink" x="0px" y="0px"
	 viewBox="0 0 764 764" style="enable-background:new 0 0 764 764;" xml:space="preserve">
<style type="text/css">
	.st0{fill:#4D4D4D;}
	.st1{fill:#E16A00;}
	.st2{fill:#CECECE;}
</style>
<path class="st0" d="M631.52,735.89V318.83c0-13.83-11.23-25.03-25.07-25.03h-90.46c-7.27,0-14.18,3.15-18.95,8.64L381.71,435.26
	L266.29,302.43c-4.76-5.48-11.67-8.63-18.94-8.63h-90.36c-13.85,0-25.07,11.21-25.07,25.03v417.06H0.06V27h153.58l228.39,262.85
	L610.25,27H764v708.89H631.52z"/>
<g>
	<path class="st1" d="M381.72,473.48l134.27-154.64h90.46v417.06H502.38V475.56L389.52,606.33h-15.63L261.06,475.56v260.33H156.99
		V318.83h90.36L381.72,473.48z"/>
	<path class="st2" d="M606.44,318.83v417.06H502.38V475.56L389.52,606.33h-15.63L261.06,475.56v260.33H156.99V318.83h90.36
		l134.37,154.64l134.27-154.64H606.44 M631.44,735.89V318.83c0-13.79-11.19-24.96-25-24.96l0,0h-90.46
		c-7.25,0-14.14,3.14-18.89,8.61L381.71,435.38l-115.48-132.9c-4.75-5.47-11.64-8.6-18.89-8.6h-90.36c-13.81,0-25,11.18-25,24.96
		v417.06 M286.06,735.89V542.78l68.89,79.84c4.75,5.5,11.67,8.67,18.94,8.67h15.63c7.28,0,14.19-3.16,18.94-8.67l68.92-79.85v193.12
		"/>
</g>
</svg>
