<?xml version="1.0" encoding="utf-8"?>
<!-- Generator: Adobe Illustrator 27.5.0, SVG Export Plug-In . SVG Version: 6.00 Build 0)  -->
<svg version="1.1" id="Calque_1" xmlns="http://www.w3.org/2000/svg" xmlns:xlink="http://www.w3.org/1999/xlink" x="0px" y="0px"
	 viewBox="0 0 1879 1421" style="enable-background:new 0 0 1879 1421;" xml:space="preserve">
<style type="text/css">
	.st0{fill:#4D4D4D;}
	.st1{fill:#E16A00;}
	.st2{fill:#CECECE;}
	.st3{fill:#E16A00;stroke:#E16A00;stroke-width:7;stroke-miterlimit:10;}
	.st4{fill:#CECECE;stroke:#CECECE;stroke-width:7;stroke-miterlimit:10;}
</style>
<path class="st0" d="M632.55,709.8V292.47c0-13.83-11.23-25.05-25.09-25.05h-90.52c-7.28,0-14.19,3.15-18.96,8.64l-115.4,132.92
	L267.09,276.06c-4.77-5.48-11.68-8.64-18.95-8.64h-90.41c-13.86,0-25.09,11.21-25.09,25.05V709.8H0.69V0.45h153.68l228.54,263.02
	L611.27,0.45h153.85V709.8H632.55z"/>
<g>
	<path class="st1" d="M382.59,447.21l134.35-154.74h90.52V709.8H503.33V449.3L390.4,580.15h-15.64L261.86,449.3V709.8H157.73V292.47
		h90.41L382.59,447.21z"/>
	<path class="st2" d="M607.46,292.47V709.8H503.33V449.3L390.4,580.15h-15.64L261.86,449.3V709.8H157.73V292.47h90.41l134.45,154.74
		l134.35-154.74H607.46 M632.48,709.8V292.47c0-13.79-11.2-24.98-25.02-24.98l0,0h-90.52c-7.25,0-14.15,3.14-18.9,8.62
		L382.59,409.09L267.04,276.1c-4.75-5.47-11.65-8.61-18.9-8.61h-90.41c-13.82,0-25.02,11.18-25.02,24.98V709.8 M286.88,709.8V516.56
		l68.93,79.89c4.75,5.51,11.67,8.67,18.95,8.67h15.64c7.28,0,14.2-3.17,18.95-8.67l68.96-79.9V709.8"/>
</g>
<g>
	<path class="st3" d="M755.57,796.9l14.35-9.98c10.47-21,25.5-54.02,45.09-99.07c0.91-2.04,4.1-9.98,9.56-23.81
		c-13.21,11.27-28.69,20.35-46.45,27.26c-17.76,6.91-33.25,10.37-46.45,10.37c-16.85,0-25.28-5.38-25.28-16.13
		c0-6.65,3.07-18.82,9.22-36.48s9.22-30.84,9.22-39.55c0-10.24-2.97-15.36-8.88-15.36c-4.1,0-9.12,1.03-15.03,3.07
		c-5.92,2.05-11.05,4.22-15.37,6.53c-4.33,2.3-9,4.87-14,7.68c-5.02,2.82-7.75,4.22-8.2,4.22c-1.83,1.03-3.42,1.54-4.78,1.54
		c-2.27,0-3.42-1.54-3.42-4.61c0-2.56,1.6-4.61,4.78-6.14c27.33-14.33,49.41-21.5,66.27-21.5c16.4,0,24.59,6.14,24.59,18.43
		c0,2.57-2.63,12.8-7.86,30.72c-5.24,17.93-7.86,31.24-7.86,39.94c0,9.73,3.64,14.59,10.93,14.59c15.03,0,33.58-7.42,55.68-22.27
		c22.08-14.84,34.26-28.42,36.55-40.7c2.27-11.26,4.78-16.9,7.51-16.9c13.66,0,20.49,6.14,20.49,18.43c0,3.07-1.6,8.96-4.78,17.66
		c-3.19,8.71-7.07,18.18-11.61,28.42c-4.56,10.25-7.29,16.9-8.2,19.97c-7.29,20.48-18.22,46.08-32.79,76.8
		c46.9-26.11,109.65-58.75,188.21-97.92c78.56-39.17,122.39-61.06,131.51-65.66c2.73-1.54,4.32-2.3,4.78-2.3
		c2.27,0,3.42,1.8,3.42,5.38c0,2.57-1.6,4.61-4.78,6.14c-1.83,1.03-45.43,22.54-130.82,64.51c-85.39,41.98-152,77.57-199.82,106.75
		c-34.16,68.6-72.41,132.73-114.77,192.38c-42.36,59.64-71.5,89.47-87.44,89.47c-9.56,0-14.35-6.66-14.35-19.97
		C584.78,964.32,641.71,880.35,755.57,796.9z M758.98,808.42c-46.45,36.35-85.63,77.69-117.5,124.03
		c-31.87,46.33-47.82,85.12-47.82,116.35c0,4.61,1.37,6.91,4.1,6.91c10.93,0,32.34-24.96,64.22-74.88
		C693.85,930.91,726.19,873.43,758.98,808.42z"/>
</g>
<g>
	<path class="st4" d="M903.78,359.2c11.43,0,17.16,7.23,17.16,21.68c0,15.9-6.34,32.05-19.01,48.42
		c-12.68,16.39-28.13,24.57-46.37,24.57c-6.8,0-11.9-1.68-15.3-5.06c-0.62,5.78-0.93,10.37-0.93,13.73c0,14.94,4.02,27.1,12.06,36.5
		s20.56,14.09,37.56,14.09c47.6,0,120.72-37.1,219.33-111.3c3.09-2.41,5.25-4.09,6.49-5.06c1.86-1.45,2.93-2.17,3.25-2.17
		c1.86,0,2.78,1.69,2.78,5.06c0,2.42-1.24,4.34-3.71,5.78c-32.15,26.99-70.41,53.37-114.77,79.14
		c-44.36,25.77-83.08,38.67-116.16,38.67c-22.57,0-39.26-5.31-50.08-15.9c-10.82-10.59-16.23-24.32-16.23-41.2
		c0-24.57,8.89-48.54,26.66-71.91C864.29,370.88,883.38,359.2,903.78,359.2z M849.99,417.74c-1.85,4.82-2.78,9.64-2.78,14.45
		c0,7.23,3.71,10.84,11.13,10.84c12.06,0,22.49-5.9,31.3-17.71c8.81-11.8,13.22-23,13.22-33.61c0-8.19-3.71-12.29-11.13-12.29
		c-8.35,0-16.39,3.5-24.11,10.48C859.88,396.9,854.01,406.17,849.99,417.74z"/>
	<path class="st4" d="M1161.14,490.01c-10.83,0-16.23-7.23-16.23-21.68c0-8.19,2.62-21.68,7.88-40.47
		c5.25-18.79,7.88-31.08,7.88-36.86c0-4.34-1.86-6.5-5.56-6.5c-3.41,0-8.27,1.69-14.61,5.06c-6.34,3.38-11.82,6.99-16.46,10.84
		l-6.96,5.06c-1.24,0.97-2.32,1.45-3.25,1.45c-1.54,0-2.32-1.45-2.32-4.34c0-2.41,1.09-4.34,3.25-5.78
		c17.92-13.97,33.39-20.96,46.37-20.96c11.13,0,16.69,5.06,16.69,15.18c0,0.49-1.24,5.67-3.71,15.54
		c-2.48,9.88-5.03,20.72-7.65,32.52c-2.63,11.81-3.94,20.36-3.94,25.66c0,4.82,1.08,7.23,3.25,7.23c0.93,0,5.56-6.62,13.91-19.88
		c8.35-13.25,19.16-26.49,32.46-39.75c13.29-13.25,26.27-19.88,38.95-19.88c7.11,0,12.44,5.42,16,16.26
		c3.55,10.84,5.8,22.89,6.72,36.14c0.93,13.26,4.01,25.3,9.27,36.14c5.25,10.84,13.14,16.26,23.65,16.26
		c13.6,0,30.52-4.7,50.78-14.09c20.24-9.4,38.1-19.39,53.56-29.99c15.45-10.59,31.76-22.28,48.92-35.05
		c17.16-12.76,26.97-19.88,29.45-21.32c1.85-1.45,2.93-2.17,3.25-2.17c1.54,0,2.32,1.69,2.32,5.06c0,2.42-1.09,4.34-3.25,5.78
		c-83.47,65.05-144.21,97.57-182.24,97.57c-11.44,0-21.1-2.28-28.98-6.87c-7.88-4.57-13.61-10.35-17.16-17.35
		c-3.56-6.98-6.49-14.46-8.81-22.4c-2.32-7.95-3.87-15.41-4.64-22.4c-0.77-6.98-2.17-12.76-4.17-17.35
		c-2.01-4.57-4.56-6.87-7.65-6.87c-7.73,0-16.31,4.22-25.74,12.65c-9.43,8.44-17.47,17.59-24.11,27.46
		c-6.65,9.88-12.6,19.04-17.85,27.46C1165.15,485.8,1162.07,490.01,1161.14,490.01z"/>
	<path class="st4" d="M1628.56,414.12c0-2.89,1.31-5.78,3.94-8.67c2.62-2.89,5.02-4.34,7.19-4.34c5.25,0,7.88,2.89,7.88,8.67
		c0,1.45-0.39,3.14-1.16,5.06c-0.78,1.93-1.16,3.61-1.16,5.06c-0.62,4.82-2.63,13.01-6.03,24.57c-3.41,11.56-5.1,20-5.1,25.3
		c0,22.17,10.97,33.25,32.92,33.25c18.55,0,49.62-12.29,93.21-36.86c43.59-24.57,79.6-47.7,108.04-69.38
		c1.86-1.45,2.93-2.17,3.25-2.17c1.54,0,2.32,1.69,2.32,5.06c0,2.42-1.09,4.34-3.25,5.78c-33.7,24.1-71.8,47.46-114.3,70.11
		c-42.51,22.65-75.66,33.97-99.46,33.97c-13.29,0-22.49-3.97-27.59-11.92c-5.1-7.95-7.65-19.15-7.65-33.61
		c0-6.74,0.62-12.29,1.85-16.62c-12.68,10.6-27.21,19.88-43.59,27.83c-16.39,7.95-28.6,11.92-36.63,11.92
		c-12.37,0-18.55-9.87-18.55-29.63c0-6.74,1.46-17.35,4.41-31.8c2.93-14.45,4.41-23.6,4.41-27.46c0-9.15-1.39-13.73-4.17-13.73
		c-3.71,0-8.74,1.69-15.07,5.06c-6.34,3.38-11.67,6.99-16,10.84l-6.96,5.06c-1.24,0.97-2.32,1.45-3.25,1.45
		c-1.54,0-2.32-1.45-2.32-4.34c0-2.41,1.09-4.34,3.25-5.78c17.31-13.48,31.84-20.24,43.59-20.24c12.67,0,19.01,7.71,19.01,23.13
		c0,4.82-1.62,13.73-4.87,26.74s-4.87,22.17-4.87,27.46c0,13.49,1.86,20.24,5.56,20.24c8.65,0,21.48-3.98,38.49-11.93
		c17-7.95,30.29-16.98,39.88-27.1C1627.63,425.45,1628.56,418.46,1628.56,414.12z"/>
</g>
</svg>
